<?xml version="1.0" standalone="no"?>
<!DOCTYPE svg PUBLIC "-//W3C//DTD SVG 20010904//EN"
 "http://www.w3.org/TR/2001/REC-SVG-20010904/DTD/svg10.dtd">
<svg version="1.0" xmlns="http://www.w3.org/2000/svg"
 width="500.000000pt" height="500.000000pt" viewBox="0 0 500.000000 500.000000"
 preserveAspectRatio="xMidYMid meet">

<g transform="translate(0.000000,500.000000) scale(0.100000,-0.100000)"
fill="#000000" stroke="none">
<path d="M1729 3328 c-19 -141 -17 -631 2 -708 l14 -55 68 -3 c75 -3 72 -8 57
81 -14 89 19 150 88 163 29 6 39 3 54 -16 10 -12 18 -30 18 -41 0 -41 -53
-180 -100 -262 -27 -48 -50 -89 -50 -92 0 -3 40 -5 90 -5 l89 0 39 71 39 70 7
-41 c28 -174 233 -247 362 -128 53 49 68 91 62 178 -4 58 -15 89 -77 216 -59
124 -71 158 -71 200 0 57 12 74 52 74 33 0 48 -28 48 -91 l0 -39 64 0 64 0
-10 -42 c-34 -148 67 -330 207 -374 52 -17 54 -17 89 5 20 13 48 43 62 68 l27
45 51 -50 c94 -92 145 -100 216 -36 76 69 116 220 99 376 -5 42 -13 88 -19
103 -5 14 -10 28 -10 31 0 2 20 9 45 15 38 10 44 14 40 33 -2 11 -9 48 -15 80
-5 33 -12 61 -14 64 -3 2 -57 -19 -120 -47 -64 -28 -119 -51 -125 -51 -5 0 8
-33 29 -74 66 -133 84 -290 41 -374 -12 -23 -28 -42 -36 -42 -18 0 -80 61 -99
98 -7 15 -17 42 -21 61 l-7 34 -61 -7 c-33 -3 -62 -8 -65 -10 -2 -3 -7 -33
-12 -68 -8 -71 -33 -128 -54 -128 -24 0 -65 59 -82 117 -11 39 -15 75 -10 115
l6 58 -63 0 -64 0 -1 51 c-2 104 -39 169 -116 205 -121 56 -265 0 -296 -116
-20 -73 -1 -144 85 -315 65 -129 75 -157 75 -201 0 -56 -20 -84 -58 -84 -38 0
-62 34 -62 90 l0 50 -71 0 c-69 0 -71 1 -65 23 40 137 42 235 5 296 -47 78
-180 80 -270 3 l-42 -36 7 109 c8 127 30 302 49 393 l14 62 -93 0 -92 0 -13
-102z"/>
<path d="M329 3193 c-64 -166 -84 -434 -43 -589 39 -151 144 -253 287 -279
l37 -7 0 103 0 104 -63 30 c-86 41 -117 92 -124 204 l-6 81 77 0 77 0 -3 68
-3 67 -62 3 c-52 2 -63 6 -63 20 0 26 39 160 56 193 l15 29 -86 0 c-84 0 -86
0 -96 -27z"/>
<path d="M877 3076 c-81 -30 -142 -105 -162 -199 -5 -23 -9 -26 -30 -21 -25 6
-25 6 -25 -69 0 -92 -5 -89 164 -90 140 0 209 16 275 63 54 40 74 86 69 161
-5 68 -37 117 -94 144 -50 23 -149 29 -197 11z m121 -132 c15 -10 22 -25 22
-49 0 -42 -31 -61 -116 -71 l-57 -7 6 44 c10 78 88 123 145 83z"/>
<path d="M1384 3029 c-48 -14 -118 -82 -145 -141 -35 -77 -34 -201 2 -278 54
-115 156 -180 291 -188 42 -2 93 -1 112 2 l36 7 0 74 0 75 -72 -6 c-157 -13
-248 53 -248 181 0 90 42 145 111 145 42 0 69 -24 69 -64 l0 -27 73 3 72 3 -1
52 c-2 70 -31 115 -96 147 -55 28 -140 34 -204 15z"/>
<path d="M3949 2933 c-1 -27 -4 -61 -8 -76 l-6 -28 -34 35 c-68 70 -194 95
-281 55 -92 -42 -135 -108 -128 -200 10 -132 141 -207 297 -169 45 11 51 15
51 38 0 15 -5 44 -11 66 -10 35 -13 37 -37 32 -73 -17 -94 -18 -122 -6 -32 13
-46 45 -36 83 6 25 43 47 80 47 60 0 129 -87 141 -180 13 -97 6 -90 95 -90
l80 0 -5 28 c-13 85 -14 111 -5 117 20 12 59 83 79 142 11 32 20 49 20 39 1
-11 8 -43 18 -72 16 -51 15 -54 -5 -103 -62 -143 -68 -328 -15 -468 l16 -43
109 0 109 0 -24 33 c-37 48 -73 125 -87 186 -12 51 -10 185 4 198 3 3 29 -6
57 -22 38 -20 71 -29 118 -32 58 -4 73 -1 120 24 76 39 113 88 119 157 2 30 2
66 -2 80 -9 36 -65 96 -103 112 -61 26 -182 11 -236 -30 -16 -12 -16 -17 -2
-56 24 -68 28 -70 85 -42 32 16 58 22 74 18 89 -22 67 -136 -25 -136 -66 0
-132 77 -169 198 l-18 57 -71 3 c-68 3 -71 4 -71 27 0 25 -1 25 -85 25 l-85 0
-1 -47z"/>
<path d="M726 2657 c38 -125 174 -248 303 -273 l31 -6 0 86 c0 74 -3 87 -17
92 -45 13 -126 59 -146 84 -20 23 -33 28 -101 33 -77 7 -77 7 -70 -16z"/>
</g>
</svg>
